<?xml version="1.0" encoding="UTF-8" standalone="no"?>
<!-- Created with Inkscape (http://www.inkscape.org/) -->

<svg
   width="1129.25mm"
   height="247.91736mm"
   viewBox="0 0 4001.2814 878.44801"
   id="svg4272"
   version="1.1"
   inkscape:version="1.3.2 (091e20e, 2023-11-25, custom)"
   sodipodi:docname="duinotepadbanner.svg"
   inkscape:export-filename="duinotepadbanner.png"
   inkscape:export-xdpi="7.6799998"
   inkscape:export-ydpi="7.6799998"
   xmlns:inkscape="http://www.inkscape.org/namespaces/inkscape"
   xmlns:sodipodi="http://sodipodi.sourceforge.net/DTD/sodipodi-0.dtd"
   xmlns="http://www.w3.org/2000/svg"
   xmlns:svg="http://www.w3.org/2000/svg"
   xmlns:rdf="http://www.w3.org/1999/02/22-rdf-syntax-ns#"
   xmlns:cc="http://creativecommons.org/ns#"
   xmlns:dc="http://purl.org/dc/elements/1.1/">
  <defs
     id="defs4274">
    <filter
       style="color-interpolation-filters:sRGB"
       inkscape:label="Drop Shadow"
       id="filter969"
       x="-0.033599999"
       y="-0.03875361"
       width="1.0671999"
       height="1.0982267">
      <feFlood
         flood-opacity="0.498039"
         flood-color="rgb(0,0,0)"
         result="flood"
         id="feFlood959" />
      <feComposite
         in="flood"
         in2="SourceGraphic"
         operator="in"
         result="composite1"
         id="feComposite961" />
      <feGaussianBlur
         in="composite1"
         stdDeviation="14"
         result="blur"
         id="feGaussianBlur963" />
      <feOffset
         dx="0"
         dy="17.9641"
         result="offset"
         id="feOffset965" />
      <feComposite
         in="SourceGraphic"
         in2="offset"
         operator="over"
         result="composite2"
         id="feComposite967" />
    </filter>
    <filter
       style="color-interpolation-filters:sRGB"
       inkscape:label="Drop Shadow"
       id="filter922"
       x="-0.059227431"
       y="-0.20597701"
       width="1.1184549"
       height="1.5220788">
      <feFlood
         flood-opacity="0.498039"
         flood-color="rgb(0,0,0)"
         result="flood"
         id="feFlood912" />
      <feComposite
         in="SourceGraphic"
         in2="flood"
         operator="in"
         result="composite1"
         id="feComposite914" />
      <feGaussianBlur
         in="composite1"
         stdDeviation="14"
         result="blur"
         id="feGaussianBlur916" />
      <feOffset
         dx="0"
         dy="17.9641"
         result="offset"
         id="feOffset918" />
      <feComposite
         in="SourceGraphic"
         in2="offset"
         operator="over"
         result="composite2"
         id="feComposite920" />
    </filter>
  </defs>
  <sodipodi:namedview
     id="base"
     pagecolor="#ffffff"
     bordercolor="#666666"
     borderopacity="1.0"
     inkscape:pageopacity="0.0"
     inkscape:pageshadow="2"
     inkscape:zoom="0.1767767"
     inkscape:cx="1846.9629"
     inkscape:cy="-483.66103"
     inkscape:document-units="px"
     inkscape:current-layer="layer1"
     showgrid="false"
     fit-margin-top="0"
     fit-margin-left="0"
     fit-margin-right="25"
     fit-margin-bottom="0"
     inkscape:window-width="1920"
     inkscape:window-height="1129"
     inkscape:window-x="-8"
     inkscape:window-y="-8"
     inkscape:window-maximized="1"
     inkscape:pagecheckerboard="0"
     width="1750mm"
     inkscape:showpageshadow="2"
     inkscape:deskcolor="#d1d1d1" />
  <metadata
     id="metadata4277">
    <rdf:RDF>
      <cc:Work
         rdf:about="">
        <dc:format>image/svg+xml</dc:format>
        <dc:type
           rdf:resource="http://purl.org/dc/dcmitype/StillImage" />
      </cc:Work>
    </rdf:RDF>
  </metadata>
  <g
     inkscape:label="Layer 1"
     inkscape:groupmode="layer"
     id="layer1"
     transform="translate(-1128.3172,11.247888)">
    <path
       style="font-size:480px;line-height:1.25;font-family:'Franklin Gothic';-inkscape-font-specification:'Franklin Gothic';letter-spacing:-28.125px;stroke-width:0.9375;filter:url(#filter922)"
       d="M 1530.2861,683.00513 V 362.84888 h 110.3907 q 59.2968,0 103.2421,28.82812 60.4688,40.78125 60.4688,131.01563 0,46.40625 -16.6406,80.97656 -16.6407,34.57031 -48.6328,54.84375 -37.0313,22.61719 -76.2891,24.02344 -6.3281,0.46875 -22.6172,0.46875 z m 87.8907,-255.82032 v 192.89063 q 34.9218,-0.23438 55.4296,-9.84375 20.5079,-9.72656 29.5313,-31.28906 9.0234,-21.5625 9.0234,-58.71094 0,-67.03125 -41.7187,-85.42969 -17.2266,-7.61719 -45.586,-7.61719 z m 197.9296,255.82032 V 456.01294 h 74.4141 v 226.99219 z m 0,-254.41407 v -67.14843 h 74.4141 v 67.14843 z m 98.086,254.41407 V 456.01294 h 74.414 v 46.52344 q 33.5157,-48.98438 84.4922,-48.98438 v 73.94531 q -20.625,-7.73437 -36.4453,-7.73437 -35.039,0 -48.0469,26.01562 v 137.22657 z m 318.8672,-76.28907 48.0468,22.96875 q -32.5781,58.125 -100.3125,58.125 -33.8671,0 -60.5859,-14.41406 -26.7187,-14.53125 -41.7187,-40.66406 -14.8829,-26.25 -14.8829,-59.17969 0,-33.16406 15.1172,-61.40625 15.2344,-28.35937 41.3672,-44.64844 26.1328,-16.28906 56.836,-16.28906 30.8203,0 55.4296,15.70313 24.7266,15.70312 38.6719,43.59375 13.9453,27.77343 13.9453,62.10937 v 11.01563 h -142.6172 q 2.3438,53.32031 46.6407,53.32031 29.2968,0 44.0625,-30.23438 z m -90.2344,-62.46093 h 68.2031 q -1.4062,-46.99219 -32.6953,-46.99219 -15.4687,0 -25.3125,13.125 -9.8437,13.00781 -10.1953,33.86719 z m 298.7109,58.125 49.9219,9.60937 q -13.125,38.78906 -37.1484,57.30469 -23.9063,18.51562 -60.7032,18.51562 -32.4609,0 -58.0078,-14.41406 -25.4297,-14.41406 -39.4922,-40.66406 -13.9453,-26.25 -13.9453,-59.64844 0,-34.92187 14.4141,-62.8125 14.5312,-27.89062 40.3125,-43.47656 25.7812,-15.58594 58.125,-15.58594 25.4297,0 45.7031,9.49219 20.2735,9.49219 33.1641,27.53906 13.0078,17.92969 17.5781,42.65625 l -67.6172,2.8125 q -0.7031,-33.63281 -27.4219,-33.63281 -35.9765,0 -35.9765,70.07812 0,69.14063 41.25,69.14063 29.7656,0 39.8437,-36.91406 z m 76.5235,21.09375 V 507.80981 l -40.3125,0.46875 V 455.427 l 41.7187,1.52344 6.7969,-78.28125 h 67.1484 v 78.28125 l 48.0469,-1.52344 v 52.85156 l -48.5156,-0.46875 v 84.96094 q 0,16.75781 1.875,24.72656 1.9922,7.96875 9.375,12.07032 7.5,3.98437 23.789,3.98437 8.6719,0 14.8829,-0.9375 v 50.39063 q -18.3985,3.86718 -41.25,3.86718 -34.1016,0 -52.0313,-6.32812 -17.9297,-6.32813 -24.7266,-19.80469 -6.7968,-13.59375 -6.7968,-37.26562 z m 138.9843,-260.625 h 87.7735 v 187.73437 q 0,21.44531 1.6406,31.75781 1.7578,10.3125 6.5625,19.10157 5.8594,9.72656 17.3438,15.46875 11.4843,5.625 24.8437,5.625 15.7031,0 28.5938,-7.61719 12.8906,-7.61719 17.5781,-19.80469 5.2734,-13.35937 5.2734,-44.53125 V 362.84888 h 69.1406 v 202.03125 q 0,29.64843 -5.039,47.34375 -5.0391,17.57812 -18.0469,33.86718 -11.0156,13.47657 -27.3047,23.08594 -16.1719,9.60938 -36.5625,14.53125 -20.2734,5.03906 -43.7109,5.03906 -19.4531,0 -36.3281,-3.04687 -16.875,-3.04688 -31.0547,-9.14063 -14.1797,-6.21093 -25.0782,-15.11718 -10.8984,-8.90625 -17.9296,-20.15625 -10.0782,-15.46875 -13.9454,-32.10938 -3.75,-16.75781 -3.75,-44.29687 z m 289.5704,320.15625 V 362.84888 h 87.8906 v 320.15625 z m 235.1953,0 V 362.84888 h 80.1562 l 113.3203,162.77343 V 362.84888 h 69.1407 v 320.15625 h -69.1407 L 3250.4814,501.59888 v 181.40625 z m 388.5937,-231.79688 q 32.9297,0 58.3594,14.88281 25.4297,14.76563 39.375,41.60157 14.0625,26.83593 14.0625,61.52343 0,26.13282 -8.0859,48.04688 -7.9688,21.91406 -22.8516,37.73437 -14.7656,15.70313 -35.5078,24.25782 -20.7422,8.55468 -45.3516,8.55468 -32.6953,0 -58.125,-14.88281 -25.3125,-14.88281 -39.375,-41.95312 -13.9453,-27.07032 -13.9453,-61.75782 0,-34.33593 13.9453,-61.28906 14.0625,-27.07031 39.4922,-41.83594 25.4297,-14.88281 58.0078,-14.88281 z m 0.4688,48.39844 q -33.6328,0 -33.6328,72.07031 0,67.14844 34.1015,67.14844 32.1094,0 32.1094,-71.48438 0,-67.73437 -32.5781,-67.73437 z m 141.3281,123.86719 V 507.80981 l -40.3125,0.46875 V 455.427 l 41.7187,1.52344 6.7969,-78.28125 h 67.1485 v 78.28125 l 48.0468,-1.52344 v 52.85156 l -48.5156,-0.46875 v 84.96094 q 0,16.75781 1.875,24.72656 1.9922,7.96875 9.375,12.07032 7.5,3.98437 23.7891,3.98437 8.6718,0 14.8828,-0.9375 v 50.39063 q -18.3985,3.86718 -41.25,3.86718 -34.1016,0 -52.0313,-6.32812 -17.9297,-6.32813 -24.7265,-19.80469 -6.7969,-13.59375 -6.7969,-37.26562 z m 292.0312,-16.75782 48.0469,22.96875 q -32.5781,58.125 -100.3125,58.125 -33.8672,0 -60.5859,-14.41406 -26.7188,-14.53125 -41.7188,-40.66406 -14.8828,-26.25 -14.8828,-59.17969 0,-33.16406 15.1172,-61.40625 15.2344,-28.35937 41.3672,-44.64844 26.1328,-16.28906 56.8359,-16.28906 30.8203,0 55.4297,15.70313 24.7266,15.70312 38.6719,43.59375 13.9453,27.77343 13.9453,62.10937 v 11.01563 h -142.6172 q 2.3438,53.32031 46.6406,53.32031 29.2969,0 44.0625,-30.23438 z m -90.2343,-62.46093 h 68.2031 q -1.4063,-46.99219 -32.6953,-46.99219 -15.4688,0 -25.3125,13.125 -9.8438,13.00781 -10.1953,33.86719 z m 152.3437,205.89843 V 456.01294 h 74.4141 v 28.24219 q 32.8125,-33.51563 64.3359,-33.51563 25.0781,0 43.125,14.0625 18.0469,13.94531 27.5391,40.42969 9.4922,26.48437 9.4922,62.57812 0,58.125 -20.1563,86.83594 -10.7812,15.82031 -27.3047,24.49219 -16.4062,8.67187 -35.1562,8.67187 -34.8047,0 -61.875,-31.17187 v 93.51562 z m 74.4141,-127.61718 q 15.9375,18.75 33.6328,18.75 17.3437,0 24.9609,-18.75 7.6172,-18.75 7.6172,-61.875 0,-30.58594 -9.0234,-46.75782 -8.9063,-16.17187 -25.5469,-16.17187 -15,0 -31.6406,20.15625 z m 353.9062,-97.96875 v 112.85156 q 0,15.35156 0.8203,23.4375 0.8204,7.96875 4.9219,22.14844 h -74.414 q -1.9922,-10.89844 -2.8125,-24.02344 -35.8594,28.82812 -72.0704,28.82812 -29.414,0 -48.0468,-17.34375 -18.6328,-17.34375 -18.6328,-44.53125 0,-41.01562 35.3906,-62.46093 35.5078,-21.5625 103.3594,-21.5625 v -17.34375 q 0,-13.35938 -8.2032,-20.74219 -8.2031,-7.5 -23.0859,-7.5 -14.7656,0 -22.7344,6.79687 -7.9687,6.79688 -10.7812,21.44532 l -63.3985,-15.35157 q 5.3907,-18.28125 19.1016,-31.40625 13.8281,-13.125 34.9219,-19.80468 21.0937,-6.79688 48.164,-6.79688 49.9219,0 73.711,17.22656 23.789,17.22657 23.789,56.13282 z m -71.4843,52.85156 h -5.8594 q -24.961,0 -41.4844,11.13281 -16.5234,11.01563 -16.5234,27.77344 0,11.83594 7.6172,20.03906 7.6171,8.20313 18.75,8.20313 16.1718,0 37.5,-14.88282 z m 230.039,105.58594 v -26.83594 q -27.539,31.64062 -63.3984,31.64062 -25.3125,0 -44.2969,-13.59375 -18.8672,-13.71093 -29.0625,-39.14062 -10.0781,-25.54688 -10.0781,-60.11719 0,-56.36719 22.9687,-88.24219 12.0703,-16.75781 29.0625,-26.13281 16.9922,-9.375 35.2735,-9.375 16.0547,0 29.5312,6.44531 13.5938,6.44532 30,21.79688 V 361.44263 h 74.4141 v 321.5625 z m 0,-166.52344 q -14.414,-19.21875 -33.164,-19.21875 -16.875,0 -26.25,16.99219 -9.2579,16.99218 -9.2579,47.34375 0,79.6875 35.0391,79.6875 15.3516,0 33.6328,-20.15625 z"
       id="text2645"
       aria-label="DirectUI Notepad&#10;&#10;" />
    <path
       style="font-size:240px;line-height:1.25;font-family:'Franklin Gothic Book';-inkscape-font-specification:'Franklin Gothic Book, ';stroke-width:0.9375;filter:url(#filter922)"
       d="m 1622.415,263.90918 v 17.57812 h -94.4531 V 121.52637 h 20.5078 v 142.38281 z m 99.6094,-17.69531 17.1094,3.51562 q -4.6875,15.11719 -18.2813,25.07813 -13.5937,9.84375 -31.9921,9.84375 -24.2579,0 -39.2579,-16.99219 -15,-17.10938 -15,-44.76563 0,-28.24218 15.586,-45.58593 15.5859,-17.46094 39.1406,-17.46094 23.2031,0 37.2656,16.05469 14.1797,16.05468 14.5313,48.04687 h -86.0156 q 0,26.83594 11.25,36.21094 11.25,9.375 23.789,9.375 22.6172,0 31.875,-23.32031 z m -1.0547,-35.97657 q -0.2343,-9.96093 -3.2812,-17.69531 -3.0469,-7.73437 -10.3125,-13.125 -7.2656,-5.50781 -17.461,-5.50781 -13.7109,0 -23.3203,9.84375 -9.4922,9.84375 -10.664,26.48437 z m 125.9766,35.97657 17.1094,3.51562 q -4.6875,15.11719 -18.2813,25.07813 -13.5937,9.84375 -31.9922,9.84375 -24.2578,0 -39.2578,-16.99219 -15,-17.10938 -15,-44.76563 0,-28.24218 15.586,-45.58593 15.5859,-17.46094 39.1406,-17.46094 23.2031,0 37.2656,16.05469 14.1797,16.05468 14.5313,48.04687 h -86.0157 q 0,26.83594 11.25,36.21094 11.25,9.375 23.7891,9.375 22.6172,0 31.875,-23.32031 z m -1.0547,-35.97657 q -0.2344,-9.96093 -3.2812,-17.69531 -3.0469,-7.73437 -10.3125,-13.125 -7.2657,-5.50781 -17.461,-5.50781 -13.7109,0 -23.3203,9.84375 -9.4922,9.84375 -10.6641,26.48437 z m 100.3125,58.59375 v 14.53125 q -9.7266,1.28907 -16.875,1.28907 -34.3359,0 -34.3359,-35.85938 v -71.25 h -20.9766 v -14.41406 h 20.9766 l 0.8203,-29.76563 17.1094,-1.64062 v 31.40625 h 26.4843 v 14.41406 h -26.4843 v 74.29688 q 0,18.28125 18.9843,18.28125 6.3282,0 14.2969,-1.28907 z m 29.4141,-85.42968 h -11.7188 l -3.5156,-61.875 h 18.75 z m 18.2812,67.38281 17.5781,-3.63281 q 5.8594,22.38281 37.0313,22.38281 11.4844,0 19.4531,-5.15625 7.9688,-5.15625 7.9688,-14.53125 0,-13.94531 -20.2735,-17.69531 l -24.9609,-4.6875 q -14.6484,-2.8125 -23.3203,-11.01563 -8.6719,-8.20312 -8.6719,-21.67969 0,-14.88281 11.8359,-24.84375 11.836,-10.07812 31.875,-10.07812 38.5547,0 47.5782,30.11719 l -16.875,3.63281 q -7.2657,-18.51563 -29.8828,-18.51563 -11.25,0 -18.5157,4.6875 -7.1484,4.57032 -7.1484,12.89063 0,13.125 18.3984,16.52344 l 23.086,4.10156 q 36.2109,6.5625 36.2109,35.03906 0,16.28906 -13.4766,26.36719 -13.4765,9.96094 -35.8593,9.96094 -42.0703,0 -52.0313,-33.86719 z"
       id="text30724"
       aria-label="Leet's" />
  </g>
</svg>
