<?xml version="1.0" encoding="UTF-8" standalone="no"?>
<!-- Created with Inkscape (http://www.inkscape.org/) -->

<svg
   width="4794.5161"
   height="1138.348"
   viewBox="0 0 4494.8604 1067.2013"
   id="svg4272"
   version="1.1"
   inkscape:version="1.3.2 (091e20e, 2023-11-25, custom)"
   sodipodi:docname="bannernofonts.svg"
   xmlns:inkscape="http://www.inkscape.org/namespaces/inkscape"
   xmlns:sodipodi="http://sodipodi.sourceforge.net/DTD/sodipodi-0.dtd"
   xmlns="http://www.w3.org/2000/svg"
   xmlns:svg="http://www.w3.org/2000/svg"
   xmlns:rdf="http://www.w3.org/1999/02/22-rdf-syntax-ns#"
   xmlns:cc="http://creativecommons.org/ns#"
   xmlns:dc="http://purl.org/dc/elements/1.1/">
  <defs
     id="defs4274">
    <filter
       style="color-interpolation-filters:sRGB"
       inkscape:label="Drop Shadow"
       id="filter969"
       x="-0.033599999"
       y="-0.03875361"
       width="1.0671999"
       height="1.0982267">
      <feFlood
         flood-opacity="0.498039"
         flood-color="rgb(0,0,0)"
         result="flood"
         id="feFlood959" />
      <feComposite
         in="flood"
         in2="SourceGraphic"
         operator="in"
         result="composite1"
         id="feComposite961" />
      <feGaussianBlur
         in="composite1"
         stdDeviation="14"
         result="blur"
         id="feGaussianBlur963" />
      <feOffset
         dx="0"
         dy="17.9641"
         result="offset"
         id="feOffset965" />
      <feComposite
         in="SourceGraphic"
         in2="offset"
         operator="over"
         result="composite2"
         id="feComposite967" />
    </filter>
    <filter
       style="color-interpolation-filters:sRGB"
       inkscape:label="Drop Shadow"
       id="filter922"
       x="-0.059227441"
       y="-0.20597701"
       width="1.1184549"
       height="1.5220788">
      <feFlood
         flood-opacity="0.498039"
         flood-color="rgb(0,0,0)"
         result="flood"
         id="feFlood912" />
      <feComposite
         in="SourceGraphic"
         in2="flood"
         operator="in"
         result="composite1"
         id="feComposite914" />
      <feGaussianBlur
         in="composite1"
         stdDeviation="14"
         result="blur"
         id="feGaussianBlur916" />
      <feOffset
         dx="0"
         dy="17.9641"
         result="offset"
         id="feOffset918" />
      <feComposite
         in="SourceGraphic"
         in2="offset"
         operator="over"
         result="composite2"
         id="feComposite920" />
    </filter>
  </defs>
  <sodipodi:namedview
     id="base"
     pagecolor="#ffffff"
     bordercolor="#666666"
     borderopacity="1.0"
     inkscape:pageopacity="0.0"
     inkscape:pageshadow="2"
     inkscape:zoom="0.125"
     inkscape:cx="2356"
     inkscape:cy="1156"
     inkscape:document-units="px"
     inkscape:current-layer="layer1"
     showgrid="false"
     fit-margin-top="0"
     fit-margin-left="0"
     fit-margin-right="25"
     fit-margin-bottom="0"
     inkscape:window-width="1920"
     inkscape:window-height="1129"
     inkscape:window-x="-8"
     inkscape:window-y="-8"
     inkscape:window-maximized="1"
     inkscape:pagecheckerboard="0"
     width="1750mm"
     inkscape:showpageshadow="2"
     inkscape:deskcolor="#d1d1d1"
     inkscape:export-bgcolor="#ffffffff" />
  <metadata
     id="metadata4277">
    <rdf:RDF>
      <cc:Work
         rdf:about="">
        <dc:format>image/svg+xml</dc:format>
        <dc:type
           rdf:resource="http://purl.org/dc/dcmitype/StillImage" />
      </cc:Work>
    </rdf:RDF>
  </metadata>
  <g
     inkscape:label="Layer 1"
     inkscape:groupmode="layer"
     id="layer1"
     transform="translate(-231.73769,196.93505)">
    <rect
       style="fill:#ffffff;stroke-width:0.9375"
       id="rect2"
       width="4494.8594"
       height="1067.2014"
       x="231.73785"
       y="-196.93503"
       transform="translate(3.3114367e-6)" />
    <g
       id="g2"
       transform="translate(-379.13357)">
      <g
         id="g1"
         transform="translate(38.269357)">
        <path
           style="font-size:480px;line-height:1.25;font-family:'Franklin Gothic';-inkscape-font-specification:'Franklin Gothic';letter-spacing:-28.125px;stroke-width:0.9375;filter:url(#filter922)"
           d="M 1317.6876,583.83087 V 263.67462 h 110.3906 q 59.2969,0 103.2422,28.82813 60.4688,40.78125 60.4688,131.01562 0,46.40625 -16.6406,80.97656 -16.6407,34.57032 -48.6329,54.84375 -37.0312,22.61719 -76.289,24.02344 -6.3281,0.46875 -22.6172,0.46875 z m 87.8906,-255.82031 v 192.89062 q 34.9219,-0.23437 55.4297,-9.84375 20.5078,-9.72656 29.5313,-31.28906 9.0234,-21.5625 9.0234,-58.71094 0,-67.03125 -41.7187,-85.42968 -17.2266,-7.61719 -45.586,-7.61719 z m 197.9297,255.82031 V 356.83868 h 74.4141 v 226.99219 z m 0,-254.41406 v -67.14844 h 74.4141 v 67.14844 z m 98.086,254.41406 V 356.83868 h 74.414 v 46.52344 q 33.5157,-48.98437 84.4922,-48.98437 v 73.94531 q -20.625,-7.73438 -36.4453,-7.73438 -35.0391,0 -48.0469,26.01563 v 137.22656 z m 318.8672,-76.28906 48.0468,22.96875 q -32.5781,58.125 -100.3125,58.125 -33.8672,0 -60.5859,-14.41406 -26.7188,-14.53125 -41.7188,-40.66407 -14.8828,-26.25 -14.8828,-59.17968 0,-33.16407 15.1172,-61.40625 15.2344,-28.35938 41.3672,-44.64844 26.1328,-16.28906 56.8359,-16.28906 30.8204,0 55.4297,15.70312 24.7266,15.70313 38.6719,43.59375 13.9453,27.77344 13.9453,62.10938 v 11.01562 h -142.6172 q 2.3438,53.32031 46.6407,53.32031 29.2968,0 44.0625,-30.23437 z m -90.2344,-62.46094 h 68.2031 q -1.4062,-46.99219 -32.6953,-46.99219 -15.4688,0 -25.3125,13.125 -9.8438,13.00782 -10.1953,33.86719 z m 298.7109,58.125 49.9219,9.60938 q -13.125,38.78906 -37.1484,57.30468 -23.9063,18.51563 -60.7032,18.51563 -32.4609,0 -58.0078,-14.41406 -25.4297,-14.41407 -39.4922,-40.66407 -13.9453,-26.25 -13.9453,-59.64843 0,-34.92188 14.4141,-62.8125 14.5312,-27.89063 40.3125,-43.47657 25.7812,-15.58593 58.125,-15.58593 25.4297,0 45.7031,9.49218 20.2734,9.49219 33.1641,27.53907 13.0078,17.92968 17.5781,42.65625 l -67.6172,2.8125 q -0.7031,-33.63282 -27.4219,-33.63282 -35.9765,0 -35.9765,70.07813 0,69.14062 41.25,69.14062 29.7656,0 39.8437,-36.91406 z m 76.5235,21.09375 V 408.63556 l -40.3125,0.46875 v -52.85156 l 41.7187,1.52343 6.7969,-78.28125 h 67.1484 v 78.28125 l 48.0469,-1.52343 v 52.85156 l -48.5156,-0.46875 v 84.96094 q 0,16.75781 1.875,24.72656 1.9922,7.96875 9.375,12.07031 7.5,3.98438 23.789,3.98438 8.6719,0 14.8828,-0.9375 v 50.39062 q -18.3984,3.86719 -41.25,3.86719 -34.1015,0 -52.0312,-6.32813 -17.9297,-6.32812 -24.7266,-19.80468 -6.7968,-13.59375 -6.7968,-37.26563 z m 253.4765,-260.625 h 87.7735 V 451.409 q 0,21.44531 1.6406,31.75781 1.7578,10.3125 6.5625,19.10156 5.8594,9.72656 17.3437,15.46875 11.4844,5.625 24.8438,5.625 15.7031,0 28.5937,-7.61719 12.8907,-7.61718 17.5782,-19.80468 5.2734,-13.35938 5.2734,-44.53125 V 263.67462 h 69.1406 v 202.03125 q 0,29.64844 -5.039,47.34375 -5.0391,17.57813 -18.0469,33.86719 -11.0156,13.47656 -27.3047,23.08594 -16.1719,9.60937 -36.5625,14.53125 -20.2734,5.03906 -43.7109,5.03906 -19.4532,0 -36.3282,-3.04688 -16.875,-3.04687 -31.0547,-9.14062 -14.1796,-6.21094 -25.0781,-15.11719 -10.8984,-8.90625 -17.9297,-20.15625 -10.0781,-15.46875 -13.9453,-32.10937 -3.75,-16.75782 -3.75,-44.29688 z m 289.5703,320.15625 V 263.67462 h 87.8907 v 320.15625 z m 311.0157,0 V 330.82306 h -86.836 v -67.14844 h 261.5625 v 67.14844 h -86.8359 V 583.83087 Z M 3409.8361,352.034 q 32.9296,0 58.3593,14.88281 25.4297,14.76562 39.375,41.60156 14.0625,26.83594 14.0625,61.52344 0,26.13281 -8.0859,48.04687 -7.9688,21.91407 -22.8516,37.73438 -14.7656,15.70312 -35.5078,24.25781 -20.7422,8.55469 -45.3515,8.55469 -32.6954,0 -58.125,-14.88281 -25.3125,-14.88282 -39.375,-41.95313 -13.9454,-27.07031 -13.9454,-61.75781 0,-34.33594 13.9454,-61.28906 14.0625,-27.07032 39.4921,-41.83594 25.4297,-14.88281 58.0079,-14.88281 z m 0.4687,48.39843 q -33.6328,0 -33.6328,72.07032 0,67.14843 34.1016,67.14843 32.1093,0 32.1093,-71.48437 0,-67.73438 -32.5781,-67.73438 z M 3630.3829,352.034 q 32.9297,0 58.3594,14.88281 25.4297,14.76562 39.375,41.60156 14.0625,26.83594 14.0625,61.52344 0,26.13281 -8.0859,48.04687 -7.9688,21.91407 -22.8516,37.73438 -14.7656,15.70312 -35.5078,24.25781 -20.7422,8.55469 -45.3516,8.55469 -32.6953,0 -58.125,-14.88281 -25.3125,-14.88282 -39.375,-41.95313 -13.9453,-27.07031 -13.9453,-61.75781 0,-34.33594 13.9453,-61.28906 14.0625,-27.07032 39.4922,-41.83594 25.4297,-14.88281 58.0078,-14.88281 z m 0.4688,48.39843 q -33.6328,0 -33.6328,72.07032 0,67.14843 34.1015,67.14843 32.1094,0 32.1094,-71.48437 0,-67.73438 -32.5781,-67.73438 z m 121.6406,183.39844 v -321.5625 h 74.4141 v 321.5625 z m 97.6172,0 v -321.5625 h 74.4141 v 188.55469 l 79.6875,-93.98438 h 67.1484 l -60.9375,69.02344 73.0078,157.96875 h -86.4844 l -40.7812,-99.84375 -31.6406,35.50781 v 64.33594 z m 230.1562,0 V 356.83868 h 74.4141 v 226.99219 z m 0,-254.41406 v -67.14844 h 74.4141 v 67.14844 z m 117.3047,194.88281 V 408.63556 l -40.3125,0.46875 v -52.85156 l 41.7188,1.52343 6.7969,-78.28125 h 67.1484 v 78.28125 l 48.0469,-1.52343 v 52.85156 l -48.5157,-0.46875 v 84.96094 q 0,16.75781 1.875,24.72656 1.9922,7.96875 9.375,12.07031 7.5,3.98438 23.7891,3.98438 8.6719,0 14.8828,-0.9375 v 50.39062 q -18.3984,3.86719 -41.25,3.86719 -34.1015,0 -52.0312,-6.32813 -17.9297,-6.32812 -24.7266,-19.80468 -6.7969,-13.59375 -6.7969,-37.26563 z"
           id="text2645"
           aria-label="Direct UI Toolkit&#10;&#10;" />
      </g>
      <path
         style="font-size:240px;line-height:1.25;font-family:'Franklin Gothic Book';-inkscape-font-specification:'Franklin Gothic Book, ';stroke-width:0.9375;filter:url(#filter922)"
         d="m 1430.4225,164.73492 v 17.57813 h -94.4531 V 22.352112 h 20.5078 V 164.73492 Z m 99.6094,-17.69531 17.1093,3.51563 q -4.6875,15.11718 -18.2812,25.07812 -13.5938,9.84375 -31.9922,9.84375 -24.2578,0 -39.2578,-16.99219 -15,-17.10937 -15,-44.76562 0,-28.242188 15.5859,-45.585938 15.586,-17.460938 39.1406,-17.460938 23.2032,0 37.2657,16.054688 14.1797,16.054687 14.5312,48.046878 h -86.0156 q 0,26.83593 11.25,36.21093 11.25,9.375 23.7891,9.375 22.6171,0 31.875,-23.32031 z m -1.0547,-35.97656 q -0.2344,-9.96094 -3.2813,-17.695313 -3.0469,-7.734375 -10.3125,-13.125 -7.2656,-5.507813 -17.4609,-5.507813 -13.711,0 -23.3203,9.84375 -9.4922,9.84375 -10.6641,26.484376 z m 125.9765,35.97656 17.1094,3.51563 q -4.6875,15.11718 -18.2812,25.07812 -13.5938,9.84375 -31.9922,9.84375 -24.2578,0 -39.2578,-16.99219 -15,-17.10937 -15,-44.76562 0,-28.242188 15.5859,-45.585938 15.5859,-17.460938 39.1406,-17.460938 23.2031,0 37.2656,16.054688 14.1797,16.054687 14.5313,48.046878 h -86.0156 q 0,26.83593 11.25,36.21093 11.25,9.375 23.789,9.375 22.6172,0 31.875,-23.32031 z m -1.0547,-35.97656 q -0.2343,-9.96094 -3.2812,-17.695313 -3.0469,-7.734375 -10.3125,-13.125 -7.2656,-5.507813 -17.4609,-5.507813 -13.711,0 -23.3204,9.84375 -9.4921,9.84375 -10.664,26.484376 z m 100.3125,58.59375 v 14.53125 q -9.7265,1.28906 -16.875,1.28906 -34.3359,0 -34.3359,-35.85937 V 78.367737 H 1682.024 V 63.953674 h 20.9766 l 0.8203,-29.765625 17.1094,-1.640625 v 31.40625 h 26.4844 v 14.414063 h -26.4844 v 74.296873 q 0,18.28125 18.9844,18.28125 6.3281,0 14.2968,-1.28906 z m 29.4141,-85.429688 h -11.7187 l -3.5157,-61.875 h 18.75 z m 18.2813,67.382808 17.5781,-3.63281 q 5.8594,22.38281 37.0312,22.38281 11.4844,0 19.4532,-5.15625 7.9687,-5.15625 7.9687,-14.53125 0,-13.94531 -20.2734,-17.69531 l -24.961,-4.6875 q -14.6484,-2.8125 -23.3203,-11.01562 -8.6719,-8.20313 -8.6719,-21.679691 0,-14.882812 11.836,-24.84375 11.8359,-10.078125 31.875,-10.078125 38.5547,0 47.5781,30.117188 l -16.875,3.632812 q -7.2656,-18.515625 -29.8828,-18.515625 -11.25,0 -18.5156,4.6875 -7.1485,4.570313 -7.1485,12.890625 0,13.124996 18.3985,16.523436 l 23.0859,4.10156 q 36.2109,6.5625 36.2109,35.03907 0,16.28906 -13.4765,26.36718 -13.4766,9.96094 -35.8594,9.96094 -42.0703,0 -52.0312,-33.86719 z"
         id="text30724"
         aria-label="Leet's" />
    </g>
  </g>
</svg>
